<?xml version="1.0" encoding="UTF-8"?>
<svg version="1.1" xmlns="http://www.w3.org/2000/svg" width="186" height="147">
<path d="M0 0 C5.94074306 -0.04976779 11.88136235 -0.08589256 17.82226562 -0.10986328 C19.83953976 -0.11986576 21.8567996 -0.13347206 23.87402344 -0.15087891 C26.78844754 -0.17538198 29.70267848 -0.18654091 32.6171875 -0.1953125 C33.50614716 -0.20563507 34.39510681 -0.21595764 35.31100464 -0.22659302 C49.39731114 -0.22906693 61.12991075 3.97089507 71.671875 13.484375 C73 15 73 15 73 17 C73.66 17 74.32 17 75 17 C76.3671875 18.80078125 76.3671875 18.80078125 77.875 21.3125 C78.36742188 22.11300781 78.85984375 22.91351563 79.3671875 23.73828125 C83.75635085 32.50610756 85.67942639 40.12334837 85.5 49.9375 C85.48936523 50.98929443 85.47873047 52.04108887 85.46777344 53.12475586 C85.20719157 63.75995945 82.73302811 71.99095582 77 81 C76.34 81 75.68 81 75 81 C74.835 81.680625 74.67 82.36125 74.5 83.0625 C69.90483862 92.0613577 58.50286134 97.47246295 49.27734375 100.58032227 C45.98732777 101.18661916 42.72294345 101.12218463 39.390625 101.09765625 C38.66381531 101.0962413 37.93700562 101.09482635 37.18817139 101.09336853 C34.87540506 101.08778792 32.56273688 101.07523904 30.25 101.0625 C28.67838682 101.05748249 27.10677211 101.05292002 25.53515625 101.04882812 C21.69006657 101.03782485 17.8450499 101.02057361 14 101 C14.33 99.68 14.66 98.36 15 97 C15.66 97 16.32 97 17 97 C17.268125 96.154375 17.53625 95.30875 17.8125 94.4375 C19.04782967 90.86154568 20.49434451 87.46919525 22 84 C22.61931396 83.9906543 23.23862793 83.98130859 23.87670898 83.97167969 C26.73106035 83.91740737 29.58387108 83.83387663 32.4375 83.75 C33.41138672 83.73582031 34.38527344 83.72164063 35.38867188 83.70703125 C44.93999352 83.38758905 52.18125146 80.58964435 59.20703125 74.0546875 C63.95974217 68.60822574 66.60680581 62.20856018 67 55 C67.05027344 54.33742187 67.10054688 53.67484375 67.15234375 52.9921875 C67.57628424 43.52983577 65.41213405 34.8118594 59.40234375 27.42578125 C58.03679052 25.88336249 58.03679052 25.88336249 56 25 C56 24.34 56 23.68 56 23 C55.195625 22.731875 54.39125 22.46375 53.5625 22.1875 C51.70821392 21.56940464 49.85498979 20.94449445 48.02955627 20.24577332 C42.30918265 18.13614733 37.2209913 17.53388262 31.15234375 17.48828125 C30.25504044 17.47033005 29.35773712 17.45237885 28.4332428 17.43388367 C25.60137463 17.3802267 22.76967058 17.34602966 19.9375 17.3125 C18.00323258 17.27928743 16.0689867 17.2447942 14.13476562 17.20898438 C9.42329643 17.12452653 4.71187211 17.05750447 0 17 C0 11.39 0 5.78 0 0 Z " fill="#BEBFC6" transform="translate(18,21)"/>
<path d="M0 0 C0.92218826 -0.01606293 1.84437653 -0.03212585 2.79450989 -0.04867554 C7.061242 -0.09326044 11.32781502 -0.13428118 15.59472656 -0.15722656 C17.83409084 -0.17368417 20.07340486 -0.20083673 22.3125 -0.23925781 C48.54778998 -0.68705868 48.54778998 -0.68705868 60.1081543 8.56787109 C61.32486021 9.74679111 62.51516834 10.95388849 63.6706543 12.19287109 C64.15147461 12.70333984 64.63229492 13.21380859 65.12768555 13.73974609 C70.12609614 19.84052519 72.07526141 28.02512087 73.1706543 35.69287109 C71.51333763 47.29408774 67.45630983 56.13789294 58.7331543 64.00537109 C49.24214254 70.7846652 40.68913348 71.35226617 29.2331543 71.25537109 C28.21543945 71.25085938 27.19772461 71.24634766 26.14916992 71.24169922 C23.65626921 71.22999546 21.16349356 71.21359958 18.6706543 71.19287109 C18.67850952 72.50276001 18.67850952 72.50276001 18.68652344 73.83911133 C18.70353181 77.06876382 18.71608799 80.29839355 18.72558594 83.52807617 C18.73062509 84.92782338 18.73745646 86.32756529 18.74609375 87.72729492 C18.75817749 89.73532886 18.76335236 91.74340067 18.76831055 93.75146484 C18.77616577 95.56602173 18.77616577 95.56602173 18.78417969 97.41723633 C18.6706543 100.19287109 18.6706543 100.19287109 17.6706543 101.19287109 C14.80797863 101.26612277 11.9699353 101.28525314 9.1081543 101.25537109 C8.3018457 101.25085938 7.49553711 101.24634766 6.66479492 101.24169922 C4.66671673 101.22987627 2.66867647 101.21194023 0.6706543 101.19287109 C-1.05556709 94.83099938 -0.91836099 87.58781487 1.90112305 81.56396484 C2.9414572 79.85503548 3.9873073 78.14945523 5.0378418 76.44677734 C8.51137397 69.52464264 9.91257373 61.69971953 11.6706543 54.19287109 C12.93341187 54.12555786 12.93341187 54.12555786 14.22167969 54.05688477 C17.37390532 53.88264114 20.52517623 53.69674476 23.67626953 53.50317383 C25.03472628 53.42206953 26.39346123 53.34548364 27.75244141 53.27368164 C40.03843681 52.96488668 40.03843681 52.96488668 50.0456543 46.69287109 C53.40948102 41.51775306 53.25666615 36.17856361 52.6706543 30.19287109 C51.38717209 25.96356526 49.02995885 23.14456639 45.2956543 20.81787109 C40.00798309 18.44753572 35.29031969 18.07768983 29.5456543 18.19287109 C9.58463785 18.26115279 9.58463785 18.26115279 2.6706543 12.19287109 C-3.82302889 5.71182153 -3.82302889 5.71182153 -5.3293457 1.19287109 C-3.75841348 -0.37806113 -2.18287922 0.03447468 0 0 Z " fill="#199AF9" transform="translate(99.329345703125,20.80712890625)"/>
<path d="M0 0 C5.28 0 10.56 0 16 0 C16.16786267 5.10044253 16.33076927 10.20061463 16.48217773 15.30151367 C16.53480106 17.02848657 16.59004261 18.75538212 16.64819336 20.48217773 C16.95004771 29.49843609 17.11964076 38.46437602 16.62109375 47.4765625 C16.58440079 48.1726915 16.54770782 48.8688205 16.50990295 49.58604431 C15.8391685 59.79160977 10.29088455 66.11192676 3 73 C1.515 73.495 1.515 73.495 0 74 C0 49.58 0 25.16 0 0 Z " fill="#C0C1C7" transform="translate(18,47)"/>
<path d="M0 0 C1.65 0 3.3 0 5 0 C5 5.28 5 10.56 5 16 C20.345 15.505 20.345 15.505 36 15 C36 15.33 36 15.66 36 16 C29.8323971 17.09857724 23.81584877 17.11539104 17.5625 17.0625 C16.54478516 17.05798828 15.52707031 17.05347656 14.47851562 17.04882812 C11.98561491 17.03712437 9.49283926 17.02072848 7 17 C7.00785522 18.30988892 7.00785522 18.30988892 7.01586914 19.64624023 C7.03287751 22.87589273 7.04543369 26.10552245 7.05493164 29.33520508 C7.0599708 30.73495228 7.06680216 32.1346942 7.07543945 33.53442383 C7.0875232 35.54245777 7.09269807 37.55052957 7.09765625 39.55859375 C7.10551147 41.37315063 7.10551147 41.37315063 7.11352539 43.22436523 C7 46 7 46 6 47 C3.13732433 47.07325168 0.299281 47.09238205 -2.5625 47.0625 C-3.36880859 47.05798828 -4.17511719 47.05347656 -5.00585938 47.04882812 C-7.00393756 47.03700518 -9.00197783 47.01906914 -11 47 C-12.72622139 40.63812829 -12.58901529 33.39494377 -9.76953125 27.37109375 C-8.7291971 25.66216439 -7.68334699 23.95658414 -6.6328125 22.25390625 C-3.15928032 15.33177155 -1.75808057 7.50684844 0 0 Z " fill="#1070DC" transform="translate(111,75)"/>
<path d="M0 0 C1.65 0 3.3 0 5 0 C5 5.28 5 10.56 5 16 C20.345 15.505 20.345 15.505 36 15 C36 15.33 36 15.66 36 16 C29.83276611 17.09851151 23.81443394 17.11496703 17.5625 17.0625 C14.076875 17.041875 10.59125 17.02125 7 17 C7 26.57 7 36.14 7 46 C6.67 46 6.34 46 6 46 C5.67 37.09 5.34 28.18 5 19 C4.34 19.99 3.68 20.98 3 22 C1.35 21.67 -0.3 21.34 -2 21 C-3.14656064 23.21122408 -4.11509221 25.329931 -4.9375 27.6875 C-5.288125 28.450625 -5.63875 29.21375 -6 30 C-6.99 30.33 -7.98 30.66 -9 31 C-9.33 36.28 -9.66 41.56 -10 47 C-10.66 46.67 -11.32 46.34 -12 46 C-11.97701149 36.83907746 -11.66305232 30.04615703 -6.6328125 22.1484375 C-3.08896859 15.31509254 -1.74644329 7.4571583 0 0 Z " fill="#1756AD" transform="translate(111,75)"/>
<path d="M0 0 C1.21994269 3.65982807 0.49026663 4.58115302 -1 8 C-1 8.66 -1 9.32 -1 10 C-3.475 9.505 -3.475 9.505 -6 9 C-6 8.34 -6 7.68 -6 7 C-14.25 7 -22.5 7 -31 7 C-31.1374827 16.28467583 -31.1374827 16.28467583 -28 19 C-25.8842333 19.26099502 -25.8842333 19.26099502 -23.45703125 19.16015625 C-22.54759766 19.14919922 -21.63816406 19.13824219 -20.70117188 19.12695312 C-19.2712793 19.09504883 -19.2712793 19.09504883 -17.8125 19.0625 C-11.74849517 18.94950612 -5.98239161 18.93260233 0 20 C0 19.34 0 18.68 0 18 C1.32 17.67 2.64 17.34 4 17 C4 16.34 4 15.68 4 15 C7.465 14.505 7.465 14.505 11 14 C5.43323432 20.2090848 0.07448148 21.41459167 -7.98828125 21.8828125 C-15.98716388 22.16870885 -23.99799481 22.07180264 -32 22 C-32 16.72 -32 11.44 -32 6 C-28.60109849 5.3202197 -25.96343004 4.87047631 -22.6015625 4.7890625 C-21.79203125 4.76070313 -20.9825 4.73234375 -20.1484375 4.703125 C-18.47417541 4.65129026 -16.79966366 4.60694577 -15.125 4.5703125 C-9.86867547 4.37007157 -3.9599771 3.9599771 0 0 Z " fill="#1F7DD9" transform="translate(148,69)"/>
<path d="M0 0 C7.19102967 2.37616632 11.90291219 8.49544252 15.375 15.0625 C19.82736685 24.99167208 19.68292932 33.40531617 16.34765625 43.7578125 C14.25629878 48.78919424 11.04035896 54.47982052 6 57 C6 56.01 6 55.02 6 54 C6.66 54 7.32 54 8 54 C7.67 52.68 7.34 51.36 7 50 C8.32 50 9.64 50 11 50 C11 48.68 11 47.36 11 46 C11.99 46 12.98 46 14 46 C14 43.36 14 40.72 14 38 C14.66 38 15.32 38 16 38 C15.71781919 35.08213036 15.42465873 32.166082 15.125 29.25 C15.04636719 28.425 14.96773437 27.6 14.88671875 26.75 C14.80292969 25.95078125 14.71914062 25.1515625 14.6328125 24.328125 C14.55949707 23.5949707 14.48618164 22.86181641 14.41064453 22.10644531 C14.09117573 19.94634476 14.09117573 19.94634476 12.96044922 17.97949219 C12 16 12 16 12 12 C8.98968256 11.06576355 8.13349732 10.95550089 5 12 C4.67 10.68 4.34 9.36 4 8 C4.66 8 5.32 8 6 8 C5.195625 7.236875 4.39125 6.47375 3.5625 5.6875 C1 3 1 3 0 0 Z " fill="#2073C2" transform="translate(153,26)"/>
<path d="M0 0 C0.33 0 0.66 0 1 0 C1 3.63 1 7.26 1 11 C16.345 10.505 16.345 10.505 32 10 C32 10.33 32 10.66 32 11 C25.83276611 12.09851151 19.81443394 12.11496703 13.5625 12.0625 C10.076875 12.041875 6.59125 12.02125 3 12 C3 21.57 3 31.14 3 41 C2.67 41 2.34 41 2 41 C1.67 32.09 1.34 23.18 1 14 C0.01 15.485 0.01 15.485 -1 17 C-2.65 16.67 -4.3 16.34 -6 16 C-5.88490339 14.58249437 -5.75746342 13.16598831 -5.625 11.75 C-5.55539063 10.96109375 -5.48578125 10.1721875 -5.4140625 9.359375 C-4.98492887 6.914123 -4.21399362 5.15163097 -3 3 C-2.01 3 -1.02 3 0 3 C0 2.01 0 1.02 0 0 Z " fill="#0C44A4" transform="translate(115,80)"/>
<path d="M0 0 C0.92864365 -0.01283524 1.85728729 -0.02567047 2.81407166 -0.03889465 C3.82748123 -0.04628159 4.84089081 -0.05366852 5.88500977 -0.0612793 C6.92528824 -0.06935104 7.96556671 -0.07742279 9.03736877 -0.08573914 C11.24917931 -0.09960645 13.46101148 -0.11031668 15.67285156 -0.11816406 C19.031106 -0.13526729 22.38834788 -0.17911673 25.74633789 -0.22338867 C27.89672128 -0.23352494 30.04711305 -0.24203811 32.19750977 -0.2487793 C33.69029701 -0.27504143 33.69029701 -0.27504143 35.21324158 -0.30183411 C42.11922161 -0.28072268 47.42375218 1.18291415 53.63891602 4.17700195 C53.63891602 4.50700195 53.63891602 4.83700195 53.63891602 5.17700195 C51.68021171 5.0362388 49.72195509 4.88923435 47.76391602 4.73950195 C46.67336914 4.65829102 45.58282227 4.57708008 44.45922852 4.4934082 C41.63891602 4.17700195 41.63891602 4.17700195 39.63891602 3.17700195 C36.57849661 3.01954369 33.53749702 2.91833318 30.47485352 2.8605957 C29.56764557 2.83981461 28.66043762 2.81903351 27.72573853 2.79762268 C24.82187622 2.7321306 21.91792197 2.67324382 19.01391602 2.61450195 C17.0477606 2.57131641 15.08161454 2.52770211 13.11547852 2.48364258 C8.29005239 2.37644956 3.46453361 2.27518114 -1.36108398 2.17700195 C-1.36108398 3.16700195 -1.36108398 4.15700195 -1.36108398 5.17700195 C-0.70108398 5.83700195 -0.04108398 6.49700195 0.63891602 7.17700195 C-0.35108398 7.17700195 -1.34108398 7.17700195 -2.36108398 7.17700195 C-3.35108398 5.19700195 -4.34108398 3.21700195 -5.36108398 1.17700195 C-3.78445856 -0.39962347 -2.18919764 0.02627096 0 0 Z " fill="#32A1EB" transform="translate(99.361083984375,20.822998046875)"/>
<path d="M0 0 C2.5 0.25 2.5 0.25 4.5 2.25 C4.125 5.875 4.125 5.875 3.5 9.25 C1.52 9.58 -0.46 9.91 -2.5 10.25 C-4.0625 8.5 -4.0625 8.5 -5.5 6.25 C-5.16834105 2.49119859 -3.95161703 0.3951617 0 0 Z " fill="#941699" transform="translate(114.5,59.75)"/>
<path d="M0 0 C-0.165 0.78375 -0.33 1.5675 -0.5 2.375 C-1.0623707 4.88208039 -1.0623707 4.88208039 -1 7 C-2.32 7 -3.64 7 -5 7 C-5.33 6.34 -5.66 5.68 -6 5 C-6.99 5.33 -7.98 5.66 -9 6 C-9 5.01 -9 4.02 -9 3 C-10.299375 3.020625 -11.59875 3.04125 -12.9375 3.0625 C-17.69382325 3.07004972 -22.28388953 2.59887117 -27 2 C-26.34 3.65 -25.68 5.3 -25 7 C-26.32 7 -27.64 7 -29 7 C-28.67 5.02 -28.34 3.04 -28 1 C-27.01604248 0.96241577 -27.01604248 0.96241577 -26.01220703 0.92407227 C-23.04959817 0.8082674 -20.08731969 0.68547114 -17.125 0.5625 C-16.09246094 0.52318359 -15.05992188 0.48386719 -13.99609375 0.44335938 C-13.00996094 0.40146484 -12.02382813 0.35957031 -11.0078125 0.31640625 C-10.09660645 0.27974854 -9.18540039 0.24309082 -8.24658203 0.20532227 C-1.40104398 -0.42031319 -1.40104398 -0.42031319 0 0 Z " fill="#868796" transform="translate(68,104)"/>
<path d="M0 0 C3.96 0 7.92 0 12 0 C10.515 1.485 10.515 1.485 9 3 C8.34 3 7.68 3 7 3 C6.83312552 5.41645782 6.83312552 5.41645782 7 8 C7.66 8.66 8.32 9.32 9 10 C8.67 10.66 8.34 11.32 8 12 C3.93583745 10.17813403 1.72086063 8.47776429 -0.25 4.4375 C-1 2 -1 2 0 0 Z " fill="#2098E0" transform="translate(98,23)"/>
<path d="M0 0 C7.31238333 2.4162658 11.98204761 8.68617666 15.5625 15.3125 C16.99711885 18.99260923 17.15196757 19.54409729 16 23 C16 22.01 16 21.02 16 20 C15.34 20 14.68 20 14 20 C12.23537317 16.91190305 12 15.76687864 12 12 C8.98968256 11.06576355 8.13349732 10.95550089 5 12 C4.67 10.68 4.34 9.36 4 8 C4.66 8 5.32 8 6 8 C5.195625 7.236875 4.39125 6.47375 3.5625 5.6875 C1 3 1 3 0 0 Z " fill="#2785C8" transform="translate(153,26)"/>
<path d="M0 0 C0.33 0 0.66 0 1 0 C1.33 9.57 1.66 19.14 2 29 C2.66 29 3.32 29 4 29 C4.33 29.99 4.66 30.98 5 32 C6.32 31.34 7.64 30.68 9 30 C8.07038578 31.15224028 7.1309875 32.29659176 6.1875 33.4375 C5.40439453 34.39462891 5.40439453 34.39462891 4.60546875 35.37109375 C3 37 3 37 0 38 C0 25.46 0 12.92 0 0 Z " fill="#9799A7" transform="translate(18,83)"/>
<path d="M0 0 C3.20815845 -0.08774066 6.41600462 -0.14063706 9.625 -0.1875 C10.52863281 -0.21263672 11.43226563 -0.23777344 12.36328125 -0.26367188 C17.74253377 -0.3225688 21.29429512 0.1013448 26 3 C26.7425 3.2475 27.485 3.495 28.25 3.75 C31.11277693 5.79484066 31.26680214 8.70060962 32 12 C31.34 12.66 30.68 13.32 30 14 C29.484375 12.9275 28.96875 11.855 28.4375 10.75 C25.98399006 6.46719467 23.48489785 5.01047145 19 3 C14.66300294 2.07323946 10.55236831 1.89232277 6.125 1.9375 C4.97257812 1.94652344 3.82015625 1.95554688 2.6328125 1.96484375 C1.76398438 1.97644531 0.89515625 1.98804688 0 2 C0 1.34 0 0.68 0 0 Z " fill="#2881BC" transform="translate(122,37)"/>
<path d="M0 0 C6.65269765 -0.10203418 13.30519097 -0.17172984 19.95849609 -0.21972656 C22.21833843 -0.23975089 24.47812955 -0.26697862 26.73779297 -0.30175781 C29.99980362 -0.35068078 33.26112487 -0.37306132 36.5234375 -0.390625 C37.52176605 -0.41127014 38.5200946 -0.43191528 39.54867554 -0.45318604 C46.47203172 -0.45536436 51.77131578 0.99300491 58 4 C58 4.33 58 4.66 58 5 C56.02 5 54.04 5 52 5 C52 4.34 52 3.68 52 3 C48.61339808 2.23747341 45.49489429 1.87732218 42.02612305 1.88647461 C41.06550461 1.88655014 40.10488617 1.88662567 39.11515808 1.88670349 C37.57895561 1.89444542 37.57895561 1.89444542 36.01171875 1.90234375 C34.95338333 1.9037587 33.89504791 1.90517365 32.80464172 1.90663147 C29.43223211 1.91221841 26.05988946 1.92476856 22.6875 1.9375 C20.39778742 1.94251669 18.10807379 1.9470793 15.81835938 1.95117188 C10.21221683 1.96218357 4.6061132 1.97890874 -1 2 C-0.67 1.34 -0.34 0.68 0 0 Z " fill="#3777A4" transform="translate(95,21)"/>
<path d="M0 0 C0 0.99 0 1.98 0 3 C-0.99 3.33 -1.98 3.66 -3 4 C-3 4.99 -3 5.98 -3 7 C-3.66 7 -4.32 7 -5 7 C-5 7.99 -5 8.98 -5 10 C-8.63 10.66 -12.26 11.32 -16 12 C-16.33 11.01 -16.66 10.02 -17 9 C-15.906875 8.95875 -14.81375 8.9175 -13.6875 8.875 C-12.470625 8.58625 -11.25375 8.2975 -10 8 C-8.18319884 5.11650072 -8.18319884 5.11650072 -7 2 C-4 0 -4 0 0 0 Z " fill="#118CF4" transform="translate(164,73)"/>
<path d="M0 0 C0.33 0.66 0.66 1.32 1 2 C2.98 1.34 4.96 0.68 7 0 C7 0.66 7 1.32 7 2 C8.32 2.33 9.64 2.66 11 3 C10.67 4.32 10.34 5.64 10 7 C5.38 6.34 0.76 5.68 -4 5 C-2 1 -2 1 0 0 Z " fill="#E6E7E8" transform="translate(56,32)"/>
<path d="M0 0 C7.92 0 15.84 0 24 0 C20.66189518 1.66905241 17.53842155 2.8741386 14 4 C14 3.34 14 2.68 14 2 C11.03 2 8.06 2 5 2 C3.68 4.64 2.36 7.28 1 10 C0.67 10 0.34 10 0 10 C0 6.7 0 3.4 0 0 Z " fill="#178CF2" transform="translate(117,76)"/>
<path d="M0 0 C1.65 0 3.3 0 5 0 C4.67 2.64 4.34 5.28 4 8 C3.01 8 2.02 8 1 8 C0.67 9.32 0.34 10.64 0 12 C-0.66 12 -1.32 12 -2 12 C-1.85831863 10.56208484 -1.71148957 9.1246763 -1.5625 7.6875 C-1.48128906 6.88699219 -1.40007812 6.08648437 -1.31640625 5.26171875 C-1 3 -1 3 0 0 Z " fill="#1744AB" transform="translate(111,75)"/>
<path d="M0 0 C0.33 0.66 0.66 1.32 1 2 C2.32 1.67 3.64 1.34 5 1 C5 1.66 5 2.32 5 3 C5.5775 2.649375 6.155 2.29875 6.75 1.9375 C9.39786506 0.83422289 10.33185326 1.19843491 13 2 C5.93179365 5.91083499 0.13695602 8.72876813 -8 9 C-4.91190305 7.23537317 -3.76687864 7 0 7 C0 4.69 0 2.38 0 0 Z " fill="#777886" transform="translate(68,113)"/>
<path d="M0 0 C0.33 0.99 0.66 1.98 1 3 C1.66 3 2.32 3 3 3 C4.5638537 7.8870428 4.5638537 13.1129572 3 18 C2.34 18 1.68 18 1 18 C0.22959149 11.93303301 -0.09706112 6.11485027 0 0 Z " fill="#2275B7" transform="translate(168,46)"/>
<path d="M0 0 C1.231394 2.46278801 1.07159196 4.2795055 1 7 C1.66 7.33 2.32 7.66 3 8 C2.67 8.99 2.34 9.98 2 11 C-0.64 11 -3.28 11 -6 11 C-5.67 9.68 -5.34 8.36 -5 7 C-4.34 7 -3.68 7 -3 7 C-2.690625 6.030625 -2.38125 5.06125 -2.0625 4.0625 C-1 1 -1 1 0 0 Z " fill="#838592" transform="translate(38,111)"/>
<path d="M0 0 C0.33 0 0.66 0 1 0 C1.54555287 6.54663442 0.8277608 11.52378747 -3 17 C-3.66 17.33 -4.32 17.66 -5 18 C-5.08090971 16.37581255 -5.13914995 14.75048255 -5.1875 13.125 C-5.22230469 12.22007813 -5.25710937 11.31515625 -5.29296875 10.3828125 C-5.19628906 9.59648438 -5.09960938 8.81015625 -5 8 C-4.01 7.34 -3.02 6.68 -2 6 C-0.78715124 2.94570927 -0.78715124 2.94570927 0 0 Z " fill="#7E7F8F" transform="translate(33,93)"/>
<path d="M0 0 C0.33 0.99 0.66 1.98 1 3 C1.99 3.33 2.98 3.66 4 4 C3.01 4.33 2.02 4.66 1 5 C1.33 6.32 1.66 7.64 2 9 C1.01 9.33 0.02 9.66 -1 10 C-1.66 9.67 -2.32 9.34 -3 9 C-3 8.34 -3 7.68 -3 7 C-3.99 7.33 -4.98 7.66 -6 8 C-6.33 7.34 -6.66 6.68 -7 6 C-4.69 4.02 -2.38 2.04 0 0 Z " fill="#8D8F9D" transform="translate(79,93)"/>
<path d="M0 0 C1.21994269 3.65982807 0.49026663 4.58115302 -1 8 C-1 8.66 -1 9.32 -1 10 C-3.375 9.8125 -3.375 9.8125 -6 9 C-7.3125 6.4375 -7.3125 6.4375 -8 4 C-6.865625 3.525625 -5.73125 3.05125 -4.5625 2.5625 C-1.24259834 1.36377917 -1.24259834 1.36377917 0 0 Z " fill="#197DD4" transform="translate(148,69)"/>
<path d="M0 0 C0.99 0.33 1.98 0.66 3 1 C2.835 1.78375 2.67 2.5675 2.5 3.375 C1.9376293 5.88208039 1.9376293 5.88208039 2 8 C0.68 8 -0.64 8 -2 8 C-2.33 7.34 -2.66 6.68 -3 6 C-3.99 6.33 -4.98 6.66 -6 7 C-5.25 5.0625 -5.25 5.0625 -4 3 C-1.875 2.25 -1.875 2.25 0 2 C0 1.34 0 0.68 0 0 Z " fill="#9F9EAD" transform="translate(65,103)"/>
<path d="M0 0 C0.66 0.33 1.32 0.66 2 1 C0.88121617 2.17262904 -0.24523051 3.33795138 -1.375 4.5 C-2.00148438 5.1496875 -2.62796875 5.799375 -3.2734375 6.46875 C-5 8 -5 8 -7 8 C-7 6.02 -7 4.04 -7 2 C-4 1 -4 1 -1 1 C-0.67 0.67 -0.34 0.34 0 0 Z " fill="#7D7D8E" transform="translate(25,113)"/>
<path d="M0 0 C0.33 0 0.66 0 1 0 C1.06058594 0.62648438 1.12117188 1.25296875 1.18359375 1.8984375 C1.26738281 2.71570313 1.35117188 3.53296875 1.4375 4.375 C1.55931641 5.59316406 1.55931641 5.59316406 1.68359375 6.8359375 C1.89090114 9.04272805 1.89090114 9.04272805 3 11 C2.195625 11.45375 1.39125 11.9075 0.5625 12.375 C-2.08856572 13.74725665 -2.08856572 13.74725665 -3 16 C-3.66 15.67 -4.32 15.34 -5 15 C-4.72285156 14.50371094 -4.44570312 14.00742188 -4.16015625 13.49609375 C-1.71312324 8.90681832 -0.43203357 5.18440279 0 0 Z " fill="#7E7E8D" transform="translate(85,76)"/>
<path d="M0 0 C-3.2870757 3.81300782 -6.39727838 5.22972246 -11 7 C-11 6.01 -11 5.02 -11 4 C-9.68 3.67 -8.36 3.34 -7 3 C-7 2.34 -7 1.68 -7 1 C-4.53721199 -0.231394 -2.7204945 -0.07159196 0 0 Z " fill="#1A6BB6" transform="translate(159,83)"/>
<path d="M0 0 C-0.33 1.65 -0.66 3.3 -1 5 C-2.65 5.33 -4.3 5.66 -6 6 C-6.33 5.01 -6.66 4.02 -7 3 C-4.49955934 -0.00052879 -4.2621484 0 0 0 Z " fill="#DBDADE" transform="translate(82,41)"/>
<path d="M0 0 C2 2 2 2 2.265625 4.27734375 C2.26046875 5.15519531 2.2553125 6.03304687 2.25 6.9375 C2.25515625 7.81277344 2.2603125 8.68804687 2.265625 9.58984375 C2 12 2 12 0 15 C-0.66 14.67 -1.32 14.34 -2 14 C-1.67 13.01 -1.34 12.02 -1 11 C-0.77820215 9.10787263 -0.59385985 7.21115528 -0.4375 5.3125 C-0.35371094 4.31863281 -0.26992187 3.32476562 -0.18359375 2.30078125 C-0.12300781 1.54152344 -0.06242188 0.78226563 0 0 Z " fill="#1C69C1" transform="translate(153,51)"/>
<path d="M0 0 C1.48831242 0.00667405 2.97660807 0.01863442 4.46484375 0.03515625 C5.22345703 0.03966797 5.98207031 0.04417969 6.76367188 0.04882812 C8.64326246 0.06064945 10.52281274 0.07858547 12.40234375 0.09765625 C12.40234375 0.42765625 12.40234375 0.75765625 12.40234375 1.09765625 C7.78234375 1.09765625 3.16234375 1.09765625 -1.59765625 1.09765625 C-1.59765625 2.08765625 -1.59765625 3.07765625 -1.59765625 4.09765625 C-0.93765625 4.75765625 -0.27765625 5.41765625 0.40234375 6.09765625 C-0.58765625 6.09765625 -1.57765625 6.09765625 -2.59765625 6.09765625 C-3.25765625 4.44765625 -3.91765625 2.79765625 -4.59765625 1.09765625 C-3.59765625 0.09765625 -3.59765625 0.09765625 0 0 Z " fill="#348FC9" transform="translate(99.59765625,21.90234375)"/>
<path d="M0 0 C1.32 1.32 2.64 2.64 4 4 C3.01 4.33 2.02 4.66 1 5 C0.67 5.99 0.34 6.98 0 8 C-1.4606285 5.35261084 -2 4.10551666 -2 1 C-1.34 0.67 -0.68 0.34 0 0 Z " fill="#CDCBD5" transform="translate(87,58)"/>
<path d="M0 0 C5.27749285 0.53851968 9.25645564 1.77343836 14 4 C14 4.33 14 4.66 14 5 C12.02 5 10.04 5 8 5 C8 4.34 8 3.68 8 3 C7.236875 2.87625 6.47375 2.7525 5.6875 2.625 C3 2 3 2 0 0 Z " fill="#287AAD" transform="translate(139,21)"/>
<path d="M0 0 C0.66 0.33 1.32 0.66 2 1 C0.95125002 3.62187494 0.35068687 4.79371361 -2.125 6.25 C-2.74375 6.4975 -3.3625 6.745 -4 7 C-4.33 6.34 -4.66 5.68 -5 5 C-4.34 4.01 -3.68 3.02 -3 2 C-2.34 2 -1.68 2 -1 2 C-0.67 1.34 -0.34 0.68 0 0 Z " fill="#787A88" transform="translate(89,104)"/>
<path d="M0 0 C8.78723404 -0.29787234 8.78723404 -0.29787234 13 2 C13.33 2.66 13.66 3.32 14 4 C9.31261335 3.09276387 4.65806256 2.0452733 0 1 C0 0.67 0 0.34 0 0 Z " fill="#226B9D" transform="translate(135,38)"/>
<path d="M0 0 C1.65 0 3.3 0 5 0 C5.33 1.32 5.66 2.64 6 4 C5.01 4.66 4.02 5.32 3 6 C1.5 4.6875 1.5 4.6875 0 3 C0 2.01 0 1.02 0 0 Z " fill="#22A5F7" transform="translate(148,26)"/>
<path d="M0 0 C1.98 0 3.96 0 6 0 C5.01 1.485 5.01 1.485 4 3 C4.33 3.66 4.66 4.32 5 5 C2.5625 4.625 2.5625 4.625 0 4 C-0.33 3.34 -0.66 2.68 -1 2 C-0.67 1.34 -0.34 0.68 0 0 Z " fill="#24ACF7" transform="translate(98,23)"/>
<path d="M0 0 C0.33 0 0.66 0 1 0 C1 2.97 1 5.94 1 9 C-0.65 9.33 -2.3 9.66 -4 10 C-4.33 9.34 -4.66 8.68 -5 8 C-4.01 7.34 -3.02 6.68 -2 6 C-0.78715124 2.94570927 -0.78715124 2.94570927 0 0 Z " fill="#9899A5" transform="translate(33,93)"/>
<path d="M0 0 C0.99 0.33 1.98 0.66 3 1 C3 4.96 3 8.92 3 13 C2.67 13 2.34 13 2 13 C1.93941406 12.39671875 1.87882813 11.7934375 1.81640625 11.171875 C1.69072266 9.97304688 1.69072266 9.97304688 1.5625 8.75 C1.48128906 7.96109375 1.40007812 7.1721875 1.31640625 6.359375 C1.02365007 4.17635361 0.57935581 2.1226818 0 0 Z " fill="#2899F0" transform="translate(153,49)"/>
<path d="M0 0 C0.99 0 1.98 0 3 0 C2.625 2.9375 2.625 2.9375 2 6 C1.01 6.495 1.01 6.495 0 7 C0 4.69 0 2.38 0 0 Z " fill="#2683CF" transform="translate(167,64)"/>
<path d="M0 0 C0.66 0 1.32 0 2 0 C2.33 1.65 2.66 3.3 3 5 C1.68 5 0.36 5 -1 5 C-0.67 3.35 -0.34 1.7 0 0 Z " fill="#DB05D2" transform="translate(113,62)"/>
</svg>
